<svg width="28" height="24" viewBox="0 0 28 24" fill="none" xmlns="http://www.w3.org/2000/svg">
<path d="M1.7625 5.99998C1.43867 5.63741 1.20781 5.20158 1.08977 4.72999C0.971739 4.25841 0.970075 3.7652 1.08492 3.29283C1.19977 2.82046 1.42769 2.38308 1.74907 2.01833C2.07044 1.65358 2.47564 1.37239 2.92979 1.19897C3.38394 1.02555 3.87342 0.965093 4.35612 1.0228C4.83881 1.08051 5.30025 1.25465 5.70072 1.53024C6.10118 1.80583 6.42868 2.17461 6.65501 2.60484C6.88135 3.03507 6.99974 3.51385 7 3.99998V20C7.00026 20.4861 7.11865 20.9649 7.34499 21.3951C7.57132 21.8254 7.89882 22.1941 8.29928 22.4697C8.69975 22.7453 9.16119 22.9195 9.64388 22.9772C10.1266 23.0349 10.6161 22.9744 11.0702 22.801C11.5244 22.6276 11.9296 22.3464 12.2509 21.9816C12.5723 21.6169 12.8002 21.1795 12.9151 20.7071C13.0299 20.2348 13.0283 19.7416 12.9102 19.27C12.7922 18.7984 12.5613 18.3626 12.2375 18H26.2375C26.6237 18.4317 26.8766 18.966 26.9657 19.5384C27.0548 20.1107 26.9764 20.6967 26.7398 21.2254C26.5031 21.7541 26.1185 22.203 25.6324 22.5179C25.1462 22.8328 24.5792 23.0003 24 23H10" stroke="black" stroke-width="2" stroke-linecap="round" stroke-linejoin="round"/>
</svg>
